<?xml version="1.0" standalone="no"?>
<!DOCTYPE svg PUBLIC "-//W3C//DTD SVG 20010904//EN"
 "http://www.w3.org/TR/2001/REC-SVG-20010904/DTD/svg10.dtd">
<svg version="1.0" xmlns="http://www.w3.org/2000/svg"
 width="200.000000pt" height="200.000000pt" viewBox="0 0 200.000000 200.000000"
 preserveAspectRatio="xMidYMid meet">

<g transform="translate(0.000000,200.000000) scale(0.100000,-0.100000)"
fill="#000000" stroke="none">
<path d="M70 1674 l0 -257 83 7 c667 54 1144 157 1647 354 l125 49 3 52 3 51
-930 0 -931 0 0 -256z"/>
<path d="M1897 1764 c-52 -28 -351 -142 -497 -189 -365 -117 -834 -214 -1198
-247 l-132 -12 0 -103 c0 -57 4 -103 9 -103 28 0 347 68 536 115 441 109 822
240 1253 430 l62 28 0 48 c0 27 -1 49 -2 49 -2 -1 -16 -8 -31 -16z"/>
<path d="M1876 1579 c-74 -40 -392 -177 -541 -234 -328 -126 -767 -262 -1102
-341 l-163 -38 0 -178 0 -178 25 10 c342 130 1210 544 1525 728 25 14 59 33
75 42 17 8 76 42 133 75 101 59 102 60 102 97 0 44 -2 44 -54 17z"/>
<path d="M1770 1272 c-85 -54 -181 -113 -212 -132 -31 -19 -54 -38 -51 -44 3
-5 1 -6 -5 -2 -6 4 -28 -4 -49 -17 -202 -127 -676 -385 -1075 -585 l-308 -154
0 -134 0 -134 78 39 c152 77 272 148 264 156 -4 4 -2 5 4 2 24 -14 861 483
849 504 -3 5 0 6 7 4 12 -5 399 246 596 385 l62 44 0 83 c0 46 -1 83 -3 83 -1
0 -72 -44 -157 -98z"/>
<path d="M1785 1043 c-71 -52 -129 -99 -128 -102 1 -4 -4 -8 -11 -8 -7 0 -78
-45 -157 -100 -317 -221 -856 -558 -1161 -727 -38 -21 -68 -39 -68 -41 0 -2
51 -4 113 -4 l112 -1 170 103 c263 160 506 322 498 332 -4 4 -3 5 3 2 14 -8
239 148 551 382 l223 166 0 48 c0 26 -3 47 -7 46 -5 0 -66 -43 -138 -96z"/>
<path d="M1825 878 c-55 -46 -175 -143 -267 -215 -92 -72 -164 -134 -160 -138
4 -4 2 -5 -4 -3 -6 1 -87 -54 -180 -123 -93 -69 -236 -172 -317 -230 l-148
-104 587 -3 c323 -1 589 -1 591 1 2 2 2 205 1 451 l-3 447 -100 -83z"/>
</g>
</svg>
