<svg version="1.1" id="Layer_1" xmlns="http://www.w3.org/2000/svg" xmlns:xlink="http://www.w3.org/1999/xlink" x="0px" y="0px"
	 width="100%" viewBox="0 0 400 400" enable-background="new 0 0 400 400" xml:space="preserve">
<path fill="#FFFFFF" opacity="1.000000" stroke="none" 
	d="
M212.000000,401.000000 
	C141.704117,401.000000 71.408226,401.000000 1.056167,401.000000 
	C1.056167,267.775116 1.056167,134.550201 1.056167,1.000000 
	C71.020561,1.000000 141.041626,1.000000 211.522369,1.381056 
	C211.310394,2.561593 210.746948,3.496580 209.946991,4.135405 
	C207.445892,6.132686 206.838730,11.881619 208.996735,14.340826 
	C209.342941,15.456658 209.686935,16.231224 210.106232,17.467453 
	C210.121658,22.952763 210.061768,27.976408 209.638550,33.006729 
	C208.152008,33.766171 207.028793,34.518940 206.481796,34.885536 
	C204.483795,34.531200 202.836044,34.238979 200.713547,33.862564 
	C200.798767,33.983913 200.467224,33.611382 200.247757,33.181614 
	C199.438049,31.596081 198.665390,29.991613 197.878815,28.394264 
	C197.252411,30.254093 196.620316,32.112026 196.000626,33.974094 
	C193.997131,39.994350 191.998199,46.016129 189.894669,52.346802 
	C187.346268,50.755894 185.871323,49.835117 184.053955,48.700577 
	C183.307938,50.298058 182.741257,51.511520 182.142929,52.792747 
	C180.241821,51.323689 178.659897,50.101280 176.251068,48.239899 
	C176.461075,50.122231 176.398590,50.640137 176.582565,51.046444 
	C178.738327,55.807549 183.106140,60.467693 177.083389,65.541428 
	C176.827560,65.756935 177.017639,66.501762 176.618835,66.994255 
	C170.979874,65.771919 162.421890,70.453529 162.523376,75.803902 
	C162.626221,81.225983 159.258835,82.175522 156.140701,84.211060 
	C155.613022,84.555542 155.412003,85.400429 154.721054,86.605232 
	C157.936401,86.415733 161.852142,84.642883 160.743744,90.088257 
	C160.277374,90.396706 160.088501,90.645195 159.586090,90.955307 
	C157.768417,90.678627 156.334442,90.393700 154.914352,90.111526 
	C153.882370,92.006279 153.225449,93.991806 151.937012,95.399147 
	C149.897812,97.626518 147.390671,100.383392 144.149139,97.641235 
	C141.204224,95.149971 139.061432,95.155037 136.874969,98.247940 
	C135.328018,100.436234 133.701370,100.568634 132.195724,98.285355 
	C131.574356,97.343071 131.280670,96.184700 130.837952,95.124603 
	C129.991257,95.665871 129.144577,96.207146 128.297882,96.748413 
	C128.761337,98.235428 129.329132,99.699196 129.666809,101.214241 
	C130.399033,104.499443 132.369156,108.404137 131.263351,110.930908 
	C130.314804,113.098358 125.808502,113.740150 122.837257,114.963631 
	C122.268394,115.197884 121.520821,114.983170 120.856506,115.002945 
	C115.291168,115.168648 114.101685,117.147568 115.271118,119.895538 
	C112.409966,124.473526 110.122902,128.132935 107.835846,131.792343 
	C105.122437,129.646484 103.399422,128.794891 101.583763,128.483627 
	C101.251160,128.426605 100.197853,130.527100 100.062691,131.699219 
	C99.225052,138.962952 99.280563,138.969360 92.005127,138.624344 
	C91.679886,136.551987 91.482910,133.441620 90.996758,133.395752 
	C88.476181,133.157883 85.409393,130.008072 82.545486,135.159531 
	C85.895950,136.520508 88.947975,137.760254 91.963776,139.352478 
	C90.098045,141.026672 87.542137,143.883896 86.558128,143.418365 
	C80.624344,140.611252 81.014587,143.473969 82.654861,147.670746 
	C81.740196,147.721420 81.239494,147.856979 80.790520,147.757980 
	C73.214149,146.087326 67.691566,150.261169 66.974037,158.166824 
	C66.871201,159.299881 66.759621,160.604523 66.153107,161.486679 
	C64.434082,163.986923 63.781841,166.158493 65.410225,169.206177 
	C66.861443,171.922287 63.214432,177.580246 60.536785,177.672012 
	C54.684746,177.872543 50.710274,183.033417 51.555458,189.715378 
	C52.891846,189.227936 54.158024,188.766113 55.398281,188.313736 
	C57.636398,193.222107 57.458656,193.449066 51.284958,194.058609 
	C51.279068,198.820892 51.279068,203.580246 51.279068,208.750519 
	C52.915558,208.222122 54.181824,207.813278 55.468437,207.397842 
	C57.050064,212.413712 58.542854,216.983170 53.872883,221.010635 
	C53.374413,221.440536 54.214893,224.324371 55.180012,225.401749 
	C60.886433,231.772049 66.897087,237.870697 72.564217,244.274170 
	C73.306038,245.112366 72.665993,247.173538 72.665993,248.668259 
	C70.544510,247.645782 69.964241,246.292877 68.938148,245.626297 
	C67.881981,244.940231 66.391106,244.923340 65.090446,244.613647 
	C65.332230,245.846436 65.236481,247.310791 65.888962,248.261810 
	C67.093552,250.017441 68.558876,251.705200 70.243591,252.991669 
	C72.252678,254.525848 74.849503,256.948395 76.759224,256.601929 
	C80.484924,255.926102 80.916649,257.927643 81.947754,260.262329 
	C82.971573,262.580536 84.036072,264.999054 85.634544,266.912659 
	C87.305573,268.913116 89.634041,270.364441 91.675125,272.055817 
	C91.502731,272.293060 91.330345,272.530304 91.157959,272.767548 
	C93.031120,272.983856 94.904289,273.200165 97.397659,273.488098 
	C92.926323,280.910034 101.859200,279.910706 103.027344,283.745972 
	C101.564339,284.842377 100.328339,285.768646 97.695770,287.741516 
	C100.440590,288.427246 102.613869,289.553619 103.165359,289.016083 
	C107.771706,284.526337 110.936012,289.153809 114.430679,290.088806 
	C114.117996,292.305969 113.021400,294.652039 113.767647,295.853821 
	C115.666054,298.911072 118.214401,301.637909 120.832489,304.153717 
	C123.242729,306.469818 125.596527,306.329041 126.897400,302.741333 
	C127.197952,301.912415 127.538452,301.097961 127.924858,300.112976 
	C133.598999,305.080963 138.928467,309.747192 144.808319,314.895325 
	C143.179764,314.577179 141.920990,313.951813 140.890732,314.216339 
	C139.221024,314.645050 137.701248,315.657684 136.118164,316.423767 
	C137.410187,317.606537 138.519516,319.352203 140.035690,319.844208 
	C142.503067,320.644928 145.237961,320.614319 147.857239,320.955261 
	C154.749664,321.852417 154.847244,322.010437 152.635773,328.959290 
	C150.443130,328.273132 148.614716,327.627716 146.786285,326.982300 
	C147.283478,326.770599 147.780685,326.558868 148.277878,326.347168 
	C150.652374,328.964264 153.026886,331.581390 155.401382,334.198486 
	C155.276321,334.554810 155.151276,334.911163 155.026215,335.267487 
	C154.350815,333.178345 153.675400,331.089172 153.410522,328.991211 
	C158.723511,327.245667 163.276947,328.091217 168.147949,330.559631 
	C166.472183,331.871735 165.284332,332.801788 163.945740,333.849915 
	C166.252335,337.202393 168.519226,338.712250 172.442734,336.894196 
	C176.634094,334.951996 178.364197,336.446411 177.856949,341.001709 
	C177.759155,341.880005 177.643311,342.756287 177.467667,344.189240 
	C179.467499,343.409912 180.899902,342.851746 183.585693,341.805115 
	C183.083359,344.862305 182.730423,347.010254 182.324219,349.482361 
	C185.974838,351.396301 190.178940,348.146545 194.402878,351.583557 
	C197.963333,354.480682 204.216537,354.068573 209.338165,355.576202 
	C209.400787,365.497803 209.403046,374.964447 209.278549,384.866241 
	C209.098969,386.200928 209.046143,387.100464 208.632507,388.065216 
	C206.960358,391.782104 207.098984,395.099609 210.174423,397.961395 
	C211.005707,398.734863 211.403336,399.974396 212.000000,401.000000 
M51.768265,219.211761 
	C52.153492,218.320267 52.940121,217.372894 52.825703,216.550949 
	C52.671173,215.440842 51.824001,214.427139 51.274025,213.372070 
	C50.291958,214.108398 48.788479,214.652725 48.432434,215.619568 
	C47.597942,217.885742 47.898914,219.946762 51.768265,219.211761 
M129.808472,311.769958 
	C130.398071,310.653137 130.987671,309.536316 131.577271,308.419495 
	C130.899582,308.085327 130.221893,307.751160 129.544220,307.416962 
	C129.412537,308.755585 129.280853,310.094238 129.808472,311.769958 
M64.591927,256.902313 
	C65.541748,256.860382 66.491577,256.818451 67.441399,256.776520 
	C67.262543,256.056763 67.083687,255.336990 66.904846,254.617218 
	C66.036201,255.185883 65.167557,255.754532 64.591927,256.902313 
M58.858356,240.702393 
	C59.761497,240.403229 60.664639,240.104080 61.567780,239.804916 
	C61.052582,239.271637 60.537384,238.738373 60.022194,238.205093 
	C59.467091,238.876038 58.911983,239.546967 58.858356,240.702393 
M113.145401,303.588959 
	C113.845596,303.917694 114.545784,304.246429 115.245972,304.575165 
	C115.320953,304.155365 115.395935,303.735565 115.470909,303.315765 
	C114.727966,303.190369 113.985023,303.064972 113.145401,303.588959 
M81.695129,266.522705 
	C81.592339,267.488068 81.489548,268.453400 81.386749,269.418762 
	C81.851410,269.406708 82.316071,269.394653 82.780731,269.382599 
	C82.638641,268.431763 82.496559,267.480957 81.695129,266.522705 
M50.083874,231.371078 
	C50.660412,231.120636 51.236950,230.870193 51.813480,230.619751 
	C51.332561,230.140305 50.851639,229.660843 50.370724,229.181381 
	C50.119663,229.756775 49.868603,230.332153 50.083874,231.371078 
M145.326965,91.776817 
	C145.584885,92.379631 145.842804,92.982445 146.100739,93.585243 
	C146.597855,93.093781 147.094971,92.602318 147.592087,92.110855 
	C146.992599,91.845955 146.393127,91.581055 145.326965,91.776817 
z"/>
<path fill="#FFFFFF" opacity="1.000000" stroke="none" 
	d="
M217.000000,1.000002 
	C278.298370,1.000000 339.596741,1.000000 400.947571,1.000000 
	C400.947571,134.222336 400.947571,267.444702 400.947571,401.000000 
	C339.979523,401.000000 278.958405,401.000000 217.461334,400.627686 
	C216.087189,399.195129 215.017838,398.232117 214.343246,397.044800 
	C213.768875,396.033905 213.649017,394.764740 213.328094,393.609833 
	C214.435104,393.355591 215.653732,392.668915 216.630051,392.920959 
	C221.187256,394.097382 223.544846,391.916473 222.864670,387.066925 
	C222.453033,384.131927 221.999405,381.158844 222.048065,378.210846 
	C222.272491,364.611389 222.830368,351.016266 222.959213,337.416656 
	C223.126266,319.785309 222.999969,302.151154 223.000107,284.518219 
	C223.000122,281.837555 222.567276,278.863251 226.826630,279.462524 
	C226.876801,302.971710 226.833939,326.020538 226.512390,349.231812 
	C226.315826,350.233185 226.259720,351.757141 226.501297,351.805878 
	C229.116745,352.333679 231.776291,352.867157 234.429443,352.897003 
	C235.938690,352.914001 237.481201,352.064362 238.968521,351.499176 
	C241.940125,350.369904 244.925446,349.259888 247.822037,347.957153 
	C249.284393,347.299500 251.578415,346.359314 251.700836,345.332733 
	C251.905945,343.612976 250.783035,341.673706 250.007660,339.920288 
	C249.512756,338.801178 248.637161,337.850403 248.028381,336.601868 
	C248.563141,336.201569 249.001755,336.023590 249.767426,335.799805 
	C250.405533,335.457977 250.716599,335.161926 251.152771,334.626892 
	C251.453186,334.347717 251.628479,334.307556 251.935669,334.659363 
	C253.137466,335.668457 254.352325,336.970551 255.251373,336.780273 
	C258.560883,336.079895 261.890320,335.170593 264.985809,333.820557 
	C273.148560,330.260620 274.047699,328.439117 272.111084,321.049072 
	C272.216675,320.885773 272.604980,320.864258 272.893311,320.815918 
	C273.449646,320.497253 273.717590,320.226868 274.134094,319.697144 
	C274.817749,319.198608 275.352905,318.959473 276.074036,319.034851 
	C280.778809,323.644714 285.303345,320.944397 289.343353,318.780640 
	C290.765045,318.019226 290.898224,314.851990 291.693176,312.572662 
	C292.682526,313.109314 294.409760,314.046204 296.868591,315.379913 
	C296.494781,311.587097 296.209320,308.690704 296.010620,305.570038 
	C296.536438,305.177246 296.975464,305.008728 297.748352,304.794495 
	C298.399384,304.446594 298.716583,304.144379 299.156006,303.609924 
	C299.449158,303.340424 299.620087,303.303162 299.958679,303.637360 
	C302.279846,304.008789 304.433319,304.008789 306.586792,304.008789 
	C306.676453,303.519714 306.766113,303.030640 306.855774,302.541565 
	C305.865631,301.884216 304.875488,301.226837 304.131958,300.276245 
	C305.481659,299.360901 306.584717,298.738800 307.831299,298.517303 
	C309.836670,299.485870 312.524139,301.122345 313.415131,300.433899 
	C316.966949,297.689423 321.377777,295.148834 321.010437,289.282043 
	C322.009308,288.659882 322.833557,288.256409 324.016998,288.001801 
	C331.082977,290.687286 339.463348,287.056274 339.766937,281.363647 
	C340.238251,281.486115 340.682434,281.686127 341.133789,281.703857 
	C342.895599,281.773071 344.659698,281.784576 346.422943,281.817566 
	C345.991302,280.231995 345.715240,278.578766 345.066895,277.087402 
	C344.705017,276.255066 343.724487,275.691650 343.022217,274.669006 
	C343.089600,273.888153 343.157532,273.445435 343.615540,273.013611 
	C345.735962,273.339020 347.466309,273.653473 349.999939,274.113892 
	C349.999939,271.915619 349.999939,270.316071 349.999939,268.716522 
	C349.999969,229.092911 350.069794,189.468994 349.904907,149.846069 
	C349.885956,145.286133 348.694702,140.702347 347.722839,136.199585 
	C347.531128,135.311432 345.911865,134.255493 344.841919,134.116592 
	C340.584747,133.563889 336.284363,133.343475 331.994934,132.627289 
	C331.316254,128.660492 329.359192,127.913673 325.908966,128.922226 
	C323.884827,129.513901 321.546295,129.030151 318.981506,129.030151 
	C321.352448,122.481499 318.356720,118.778427 312.655609,120.391502 
	C307.454010,121.863235 304.719055,120.787994 304.421051,115.735603 
	C301.318146,114.919601 298.608948,114.334099 295.986420,113.481880 
	C293.347748,112.624413 292.262970,113.725998 291.598938,116.130096 
	C289.035187,114.789459 286.822510,113.489624 284.968170,112.038513 
	C290.154449,108.921112 290.232605,106.686699 285.067535,99.558914 
	C284.389923,103.089691 283.854095,105.881447 283.558411,107.422173 
	C280.535767,107.422173 278.184723,107.422173 275.546570,107.377090 
	C274.797943,107.001518 274.336365,106.671021 273.908752,105.912216 
	C273.854492,104.167114 274.282104,102.235718 273.581940,101.648079 
	C271.431549,99.843338 268.960480,98.263153 266.357574,97.263924 
	C265.692474,97.008598 264.078217,99.225731 262.557678,100.241501 
	C260.468658,99.139908 258.721985,98.103729 256.981995,96.671661 
	C255.729431,94.103302 253.431442,91.909538 253.475449,89.763771 
	C253.529663,87.119339 255.536453,84.515900 256.677704,81.885330 
	C256.698608,81.837189 256.449188,81.671761 256.201874,81.449677 
	C255.875473,81.523003 255.277145,81.473022 254.998352,81.747566 
	C250.380692,86.294418 249.686325,86.075668 245.061707,82.036171 
	C243.649857,80.802948 240.678604,80.911331 238.492996,81.127647 
	C236.126846,81.361824 233.844254,82.440025 231.170044,83.107857 
	C229.052811,82.749611 226.813065,79.908096 225.520142,83.947166 
	C224.103973,81.489120 222.172287,79.093887 222.139709,76.673103 
	C221.886856,57.875542 221.987686,39.073029 222.024582,20.272137 
	C222.027466,18.800472 222.278976,17.309698 222.578445,15.861623 
	C223.851273,9.707106 221.707031,7.658089 215.582535,9.199512 
	C215.007156,9.344323 214.363770,9.218819 212.331680,9.218819 
	C213.479507,7.152635 214.194321,5.841993 214.932281,4.544536 
	C215.608521,3.355630 216.309784,2.180953 217.000000,1.000002 
M318.430786,303.703339 
	C318.703949,303.989441 318.977081,304.275513 319.250244,304.561615 
	C319.368622,304.448334 319.596161,304.242859 319.589630,304.235107 
	C319.334686,303.933380 319.058472,303.649689 318.430786,303.703339 
z"/>
<path fill="#FDFDFC" opacity="1.000000" stroke="none" 
	d="
M226.733566,279.002167 
	C222.567276,278.863251 223.000122,281.837555 223.000107,284.518219 
	C222.999969,302.151154 223.126266,319.785309 222.959213,337.416656 
	C222.830368,351.016266 222.272491,364.611389 222.048065,378.210846 
	C221.999405,381.158844 222.453033,384.131927 222.864670,387.066925 
	C223.544846,391.916473 221.187256,394.097382 216.630051,392.920959 
	C215.653732,392.668915 214.435104,393.355591 213.328094,393.609833 
	C213.649017,394.764740 213.768875,396.033905 214.343246,397.044800 
	C215.017838,398.232117 216.087189,399.195129 216.992676,400.627686 
	C215.611115,401.000000 214.222214,401.000000 212.416656,401.000000 
	C211.403336,399.974396 211.005707,398.734863 210.174423,397.961395 
	C207.098984,395.099609 206.960358,391.782104 208.919983,388.062744 
	C209.759674,387.986572 209.951080,387.978027 210.385071,388.159424 
	C211.418594,388.560211 212.209534,388.771088 213.036163,389.281860 
	C213.478302,389.905426 213.884750,390.229095 214.291214,390.552765 
	C214.528671,390.036591 214.766129,389.520386 215.281738,388.930237 
	C215.941895,388.862427 216.323929,388.868530 217.079712,388.877563 
	C217.507156,387.241699 217.560837,385.602844 217.492752,383.514771 
	C217.338654,382.234253 217.278015,381.403015 217.277985,380.571777 
	C217.273285,261.212616 217.271729,141.853439 217.286667,22.494265 
	C217.286850,21.007965 217.500580,19.521696 217.916443,17.893143 
	C219.263840,15.698003 220.102570,13.713385 216.409607,13.163713 
	C215.751251,13.133168 215.376923,13.069225 214.965454,12.705532 
	C214.517242,12.088599 214.106216,11.771417 213.695190,11.454234 
	C213.463593,11.975203 213.231995,12.496172 212.696671,13.088919 
	C211.644897,13.451270 210.896866,13.741843 209.860382,14.019035 
	C209.379456,14.003622 209.186981,14.001591 208.994507,13.999560 
	C206.838730,11.881619 207.445892,6.132686 209.946991,4.135405 
	C210.746948,3.496580 211.310394,2.561593 211.991028,1.381056 
	C213.388885,1.000000 214.777786,1.000000 216.583344,1.000002 
	C216.309784,2.180953 215.608521,3.355630 214.932281,4.544536 
	C214.194321,5.841993 213.479507,7.152635 212.331680,9.218819 
	C214.363770,9.218819 215.007156,9.344323 215.582535,9.199512 
	C221.707031,7.658089 223.851273,9.707106 222.578445,15.861623 
	C222.278976,17.309698 222.027466,18.800472 222.024582,20.272137 
	C221.987686,39.073029 221.886856,57.875542 222.139709,76.673103 
	C222.172287,79.093887 224.103973,81.489120 225.603165,84.404961 
	C226.058563,87.909256 226.320602,90.931213 226.012054,93.893745 
	C225.606705,97.785522 227.592285,99.661667 230.855255,100.823486 
	C231.919464,101.202408 233.024048,101.523796 234.011185,102.055313 
	C263.880676,118.138290 293.760956,134.201859 323.532684,150.464081 
	C325.126953,151.334915 326.728210,153.898819 326.746063,155.690308 
	C326.964874,177.655777 326.952515,199.624771 326.759064,221.590714 
	C326.744537,223.237289 325.287048,225.667038 323.833496,226.387802 
	C293.446075,241.455368 263.023712,256.457092 232.421280,271.080566 
	C228.515747,272.946838 226.330368,274.688660 226.733566,279.002167 
M252.475235,203.802139 
	C252.659897,203.738525 252.844543,203.674927 253.840988,203.732605 
	C255.209885,203.721802 256.578766,203.710999 258.042145,204.428879 
	C258.617859,204.894318 259.557190,205.864410 259.715363,205.750427 
	C262.651703,203.634445 266.791046,202.737564 267.126678,197.962433 
	C267.269226,195.934433 268.321503,193.970383 269.138916,191.420135 
	C270.192596,192.563293 270.795563,192.914536 270.791290,193.258240 
	C270.725708,198.542877 270.463043,203.827942 270.524872,209.109619 
	C270.544098,210.747925 271.394531,212.376511 272.135315,214.733658 
	C274.424988,215.168289 276.714691,215.602905 279.595642,216.622009 
	C284.028381,216.738098 288.480469,217.164047 292.888824,216.889206 
	C298.008972,216.570007 300.598602,209.330994 297.135223,204.336975 
	C297.088684,203.891357 297.042145,203.445740 297.456757,202.653320 
	C296.950745,202.115158 296.444733,201.576981 295.993500,200.997345 
	C295.993500,200.997345 295.959076,201.056656 295.995911,200.221008 
	C296.624847,197.371140 297.366455,194.540619 297.859650,191.667465 
	C298.935699,185.398651 295.091553,181.540878 288.240814,182.763046 
	C287.175690,182.619705 286.110535,182.476364 284.842133,181.829895 
	C283.879333,182.006073 282.916504,182.182236 281.187469,182.593277 
	C278.149384,182.733948 275.111267,182.874619 271.329742,183.133392 
	C270.553497,184.716583 269.777283,186.299759 268.920776,188.046585 
	C267.154663,187.310532 265.579681,186.654144 264.000000,186.000000 
	C264.000000,186.000000 264.002167,185.995255 263.935730,185.350296 
	C263.299866,184.894943 262.664032,184.439590 262.003601,184.003418 
	C262.003601,184.003418 262.013824,183.975250 262.000214,183.246704 
	C261.318176,182.465393 260.667847,181.043533 259.948883,181.007950 
	C255.656967,180.795471 251.349228,180.902771 245.704483,180.902771 
	C245.605942,180.707031 244.940094,179.384369 244.274246,178.061722 
	C243.972885,178.213852 243.671509,178.365997 243.370132,178.518143 
	C243.211777,179.932465 243.053421,181.346802 242.905914,182.915848 
	C242.905914,182.915848 242.751617,182.900040 242.244217,183.013275 
	C242.269806,183.689743 242.295380,184.366226 242.602066,185.752060 
	C242.509293,186.495285 242.416504,187.238495 241.619217,187.958740 
	C239.399185,187.638824 237.179138,187.318924 234.806915,186.276917 
	C234.823807,185.295090 234.840714,184.313263 234.845230,182.509720 
	C232.084122,180.270782 229.427200,179.767120 226.935059,183.919510 
	C227.003967,194.504486 227.072861,205.089462 227.150513,216.463577 
	C229.285477,218.836746 231.268921,219.127853 233.673233,215.716125 
	C234.108566,213.477646 234.543900,211.239182 235.712173,209.007996 
	C236.805267,210.008728 237.898361,211.009460 238.332001,212.108170 
	C238.034073,212.798569 237.736145,213.488983 237.438217,214.179382 
	C237.799133,214.307663 238.160049,214.435928 238.520981,214.564209 
	C238.677460,213.712326 238.833954,212.860458 239.511642,211.791687 
	C240.009399,211.528198 240.507141,211.264725 241.005478,211.818497 
	C241.899109,213.782257 242.594452,215.894531 243.857956,217.581192 
	C244.103104,217.908432 246.563751,216.576004 248.617310,215.797531 
	C249.160645,215.189636 249.703995,214.581741 250.862473,213.543594 
	C251.241531,210.362045 251.620590,207.180496 251.915710,203.816193 
	C251.915710,203.816193 251.919983,203.615143 252.475235,203.802139 
z"/>
<path fill="#8FA951" opacity="1.000000" stroke="none" 
	d="
M217.614655,18.035412 
	C217.500580,19.521696 217.286850,21.007965 217.286667,22.494265 
	C217.271729,141.853439 217.273285,261.212616 217.277985,380.571777 
	C217.278015,381.403015 217.338654,382.234253 217.347061,383.908020 
	C217.117401,386.125244 216.911682,387.499939 216.705963,388.874634 
	C216.323929,388.868530 215.941895,388.862427 214.952393,388.841736 
	C213.896774,388.878754 213.448624,388.930359 213.000473,388.981964 
	C212.209534,388.771088 211.418594,388.560211 210.422119,387.780090 
	C209.946152,386.284241 209.675720,385.357666 209.405289,384.431091 
	C209.403046,374.964447 209.400787,365.497803 209.564209,355.424377 
	C209.801498,354.236542 209.873154,353.655548 210.065521,352.836945 
	C210.147278,352.068878 210.108307,351.538422 210.135788,350.581970 
	C210.155502,348.435150 210.108795,346.714355 210.149399,344.531799 
	C210.181076,318.049377 210.125443,292.028687 210.133301,265.606476 
	C210.037125,262.532410 209.877472,259.859802 209.826172,256.751495 
	C209.941116,250.214645 209.952820,244.113525 209.953232,238.012405 
	C209.954224,222.880920 209.956696,207.749451 209.946671,192.617966 
	C209.921844,155.102127 209.890335,117.586281 210.002502,79.728859 
	C210.119263,77.588928 210.095016,75.790573 210.157059,73.561859 
	C210.181458,71.090950 210.119568,69.050407 210.120026,66.675171 
	C210.121994,65.893654 210.061661,65.446823 210.090820,64.658997 
	C210.075775,63.191006 209.971237,62.064011 209.921509,60.530083 
	C209.961197,58.759354 209.946060,57.395561 210.068253,55.659019 
	C210.160187,49.526520 210.114807,43.766766 210.135956,37.592453 
	C210.135635,35.785282 210.068756,34.392666 210.001892,33.000053 
	C210.061768,27.976408 210.121658,22.952763 210.194855,17.102684 
	C210.188385,15.528307 210.168594,14.780362 210.148819,14.032417 
	C210.896866,13.741843 211.644897,13.451270 213.027313,13.171689 
	C214.108673,13.123549 214.555634,13.064416 215.002609,13.005283 
	C215.376923,13.069225 215.751251,13.133168 216.536285,13.562986 
	C217.169556,15.297711 217.392105,16.666561 217.614655,18.035412 
z"/>
<path fill="#FDFDFC" opacity="1.000000" stroke="none" 
	d="
M210.062073,344.993530 
	C210.108795,346.714355 210.155502,348.435150 209.793457,350.628967 
	C209.072403,351.425690 208.760132,351.749481 208.447876,352.073273 
	C208.946854,352.407013 209.445816,352.740784 209.944794,353.074524 
	C209.873154,353.655548 209.801498,354.236542 209.503830,354.969421 
	C204.216537,354.068573 197.963333,354.480682 194.402878,351.583557 
	C190.178940,348.146545 185.974838,351.396301 182.324219,349.482361 
	C182.730423,347.010254 183.083359,344.862305 183.585693,341.805115 
	C180.899902,342.851746 179.467499,343.409912 177.467667,344.189240 
	C177.643311,342.756287 177.759155,341.880005 177.856949,341.001709 
	C178.364197,336.446411 176.634094,334.951996 172.442734,336.894196 
	C168.519226,338.712250 166.252335,337.202393 163.945740,333.849915 
	C165.284332,332.801788 166.472183,331.871735 168.147949,330.559631 
	C163.276947,328.091217 158.723511,327.245667 153.410522,328.991211 
	C154.847244,322.010437 154.749664,321.852417 147.857239,320.955261 
	C145.237961,320.614319 142.503067,320.644928 140.035690,319.844208 
	C138.519516,319.352203 137.410187,317.606537 136.118164,316.423767 
	C137.701248,315.657684 139.221024,314.645050 140.890732,314.216339 
	C141.920990,313.951813 143.179764,314.577179 144.808319,314.895325 
	C138.928467,309.747192 133.598999,305.080963 127.924858,300.112976 
	C127.538452,301.097961 127.197952,301.912415 126.897400,302.741333 
	C125.596527,306.329041 123.242729,306.469818 120.832489,304.153717 
	C118.214401,301.637909 115.666054,298.911072 113.767647,295.853821 
	C113.021400,294.652039 114.117996,292.305969 114.430679,290.088806 
	C110.936012,289.153809 107.771706,284.526337 103.165359,289.016083 
	C102.613869,289.553619 100.440590,288.427246 97.695770,287.741516 
	C100.328339,285.768646 101.564339,284.842377 103.027344,283.745972 
	C101.859200,279.910706 92.926323,280.910034 97.397659,273.488098 
	C94.904289,273.200165 93.031120,272.983856 91.157959,272.767548 
	C91.330345,272.530304 91.502731,272.293060 91.675125,272.055817 
	C89.634041,270.364441 87.305573,268.913116 85.634544,266.912659 
	C84.036072,264.999054 82.971573,262.580536 81.947754,260.262329 
	C80.916649,257.927643 80.484924,255.926102 76.759224,256.601929 
	C74.849503,256.948395 72.252678,254.525848 70.243591,252.991669 
	C68.558876,251.705200 67.093552,250.017441 65.888962,248.261810 
	C65.236481,247.310791 65.332230,245.846436 65.090446,244.613647 
	C66.391106,244.923340 67.881981,244.940231 68.938148,245.626297 
	C69.964241,246.292877 70.544510,247.645782 72.665993,248.668259 
	C72.665993,247.173538 73.306038,245.112366 72.564217,244.274170 
	C66.897087,237.870697 60.886433,231.772049 55.180012,225.401749 
	C54.214893,224.324371 53.374413,221.440536 53.872883,221.010635 
	C58.542854,216.983170 57.050064,212.413712 55.468437,207.397842 
	C54.181824,207.813278 52.915558,208.222122 51.279068,208.750519 
	C51.279068,203.580246 51.279068,198.820892 51.284958,194.058609 
	C57.458656,193.449066 57.636398,193.222107 55.398281,188.313736 
	C54.158024,188.766113 52.891846,189.227936 51.555458,189.715378 
	C50.710274,183.033417 54.684746,177.872543 60.536785,177.672012 
	C63.214432,177.580246 66.861443,171.922287 65.410225,169.206177 
	C63.781841,166.158493 64.434082,163.986923 66.153107,161.486679 
	C66.759621,160.604523 66.871201,159.299881 66.974037,158.166824 
	C67.691566,150.261169 73.214149,146.087326 80.790520,147.757980 
	C81.239494,147.856979 81.740196,147.721420 82.654861,147.670746 
	C81.014587,143.473969 80.624344,140.611252 86.558128,143.418365 
	C87.542137,143.883896 90.098045,141.026672 91.963776,139.352478 
	C99.280563,138.969360 99.225052,138.962952 100.062691,131.699219 
	C100.197853,130.527100 101.251160,128.426605 101.583763,128.483627 
	C103.399422,128.794891 105.122437,129.646484 107.835846,131.792343 
	C110.122902,128.132935 112.409966,124.473526 115.271118,119.895538 
	C114.101685,117.147568 115.291168,115.168648 120.856506,115.002945 
	C121.520821,114.983170 122.268394,115.197884 122.837257,114.963631 
	C125.808502,113.740150 130.314804,113.098358 131.263351,110.930908 
	C132.369156,108.404137 130.399033,104.499443 129.666809,101.214241 
	C129.329132,99.699196 128.761337,98.235428 128.297882,96.748413 
	C129.144577,96.207146 129.991257,95.665871 130.837952,95.124603 
	C131.280670,96.184700 131.574356,97.343071 132.195724,98.285355 
	C133.701370,100.568634 135.328018,100.436234 136.874969,98.247940 
	C139.061432,95.155037 141.204224,95.149971 144.149139,97.641235 
	C147.390671,100.383392 149.897812,97.626518 151.937012,95.399147 
	C153.225449,93.991806 153.882370,92.006279 154.914352,90.111526 
	C156.334442,90.393700 157.768417,90.678627 159.633820,91.014221 
	C160.065277,91.064888 160.166138,91.178131 160.010635,91.473282 
	C145.557098,103.194366 131.294815,114.665421 116.951553,126.034286 
	C100.640305,138.963043 84.130180,151.692352 71.206123,168.252731 
	C56.713230,186.823349 52.006382,206.944656 65.154602,227.920807 
	C72.965370,240.381805 81.870674,252.453293 91.928627,263.153961 
	C123.003540,296.214630 159.549438,322.681519 197.211105,347.654388 
	C198.233871,348.332611 199.426727,348.754364 200.788315,349.416290 
	C200.934891,346.960358 201.053162,344.978577 201.414764,343.221252 
	C202.603149,344.162994 203.548203,344.880310 204.493256,345.597656 
	C204.992752,344.649170 205.437546,343.666290 206.006683,342.761627 
	C206.609955,341.802734 207.331390,340.918213 208.001984,340.399170 
	C208.689194,342.195953 209.375626,343.594727 210.062073,344.993530 
M54.243969,196.977066 
	C54.397797,197.821655 54.551624,198.666245 54.705452,199.510834 
	C55.168671,199.335876 55.631889,199.160919 56.095104,198.985947 
	C55.625374,198.159409 55.155643,197.332870 54.243969,196.977066 
z"/>
<path fill="#FDFDFC" opacity="1.000000" stroke="none" 
	d="
M209.638550,33.006729 
	C210.068756,34.392666 210.135635,35.785282 209.748779,37.665302 
	C208.864197,40.434685 208.433319,42.716656 207.644073,44.963699 
	C204.331345,43.522465 203.293884,45.265762 203.094254,47.727230 
	C202.885757,50.297966 203.047699,52.898746 203.047699,55.486393 
	C202.699234,55.675476 202.350784,55.864563 202.002319,56.053650 
	C201.331055,54.192814 200.659805,52.331978 200.009521,50.529282 
	C197.460892,51.981812 197.124680,54.913235 199.246216,58.794949 
	C201.401901,62.739128 200.078217,69.165817 196.785736,72.185402 
	C195.549850,73.318848 194.414230,74.943481 194.014008,76.540001 
	C192.299744,83.378098 187.115631,90.082726 192.837021,97.396614 
	C193.164368,97.815079 192.644104,98.896591 192.540466,99.533577 
	C192.094147,99.677780 191.914749,99.805618 191.781357,99.768433 
	C189.479416,99.126900 187.183121,98.465034 184.885605,97.807625 
	C186.049576,99.890549 187.420349,101.890999 188.296783,104.088600 
	C188.790100,105.325554 188.467865,106.887741 188.513031,108.303421 
	C187.300232,108.291649 186.071198,108.394157 184.880768,108.224976 
	C184.173309,108.124443 183.526642,107.596191 182.848923,107.258369 
	C182.634598,109.605934 182.446884,111.662125 182.333603,112.903107 
	C179.175629,112.903107 177.032547,112.903107 174.936478,112.549698 
	C175.277664,111.601379 175.531754,110.982430 175.871841,110.415031 
	C186.663620,92.409683 193.350677,72.985779 195.951889,52.163113 
	C196.160721,50.491417 195.979431,48.770981 195.979431,47.073196 
	C195.510025,46.935093 195.040634,46.796993 194.571228,46.658894 
	C187.705139,64.532288 175.534729,78.217026 161.129425,90.129181 
	C161.071671,90.075821 160.951035,89.974922 160.951035,89.974922 
	C161.852142,84.642883 157.936401,86.415733 154.721054,86.605232 
	C155.412003,85.400429 155.613022,84.555542 156.140701,84.211060 
	C159.258835,82.175522 162.626221,81.225983 162.523376,75.803902 
	C162.421890,70.453529 170.979874,65.771919 176.653503,67.278915 
	C177.374680,67.892128 177.679977,68.214928 177.985275,68.537727 
	C178.167343,68.327888 178.349426,68.118042 178.531509,67.908203 
	C178.021011,67.605469 177.510498,67.302734 177.000000,67.000000 
	C177.017639,66.501762 176.827560,65.756935 177.083389,65.541428 
	C183.106140,60.467693 178.738327,55.807549 176.582565,51.046444 
	C176.398590,50.640137 176.461075,50.122231 176.251068,48.239899 
	C178.659897,50.101280 180.241821,51.323689 182.142929,52.792747 
	C182.741257,51.511520 183.307938,50.298058 184.053955,48.700577 
	C185.871323,49.835117 187.346268,50.755894 189.894669,52.346802 
	C191.998199,46.016129 193.997131,39.994350 196.000626,33.974094 
	C196.620316,32.112026 197.252411,30.254093 197.878815,28.394264 
	C198.665390,29.991613 199.438049,31.596081 200.247757,33.181614 
	C200.467224,33.611382 200.798767,33.983913 200.713547,33.862564 
	C202.836044,34.238979 204.483795,34.531200 206.481796,34.885536 
	C207.028793,34.518940 208.152008,33.766171 209.638550,33.006729 
z"/>
<path fill="#FDFDFC" opacity="1.000000" stroke="none" 
	d="
M92.005127,138.624344 
	C88.947975,137.760254 85.895950,136.520508 82.545486,135.159531 
	C85.409393,130.008072 88.476181,133.157883 90.996758,133.395752 
	C91.482910,133.441620 91.679886,136.551987 92.005127,138.624344 
z"/>
<path fill="#FDFDFC" opacity="1.000000" stroke="none" 
	d="
M152.635773,328.959290 
	C153.675400,331.089172 154.350815,333.178345 155.026215,335.267487 
	C155.151276,334.911163 155.276321,334.554810 155.401382,334.198486 
	C153.026886,331.581390 150.652374,328.964264 148.277878,326.347168 
	C147.780685,326.558868 147.283478,326.770599 146.786285,326.982300 
	C148.614716,327.627716 150.443130,328.273132 152.635773,328.959290 
z"/>
<path fill="#FDFDFC" opacity="1.000000" stroke="none" 
	d="
M51.478001,219.452423 
	C47.898914,219.946762 47.597942,217.885742 48.432434,215.619568 
	C48.788479,214.652725 50.291958,214.108398 51.274025,213.372070 
	C51.824001,214.427139 52.671173,215.440842 52.825703,216.550949 
	C52.940121,217.372894 52.153492,218.320267 51.478001,219.452423 
z"/>
<path fill="#FDFDFC" opacity="1.000000" stroke="none" 
	d="
M129.478821,311.601410 
	C129.280853,310.094238 129.412537,308.755585 129.544220,307.416962 
	C130.221893,307.751160 130.899582,308.085327 131.577271,308.419495 
	C130.987671,309.536316 130.398071,310.653137 129.478821,311.601410 
z"/>
<path fill="#FDFDFC" opacity="1.000000" stroke="none" 
	d="
M64.445419,256.612732 
	C65.167557,255.754532 66.036201,255.185883 66.904846,254.617218 
	C67.083687,255.336990 67.262543,256.056763 67.441399,256.776489 
	C66.491577,256.818451 65.541748,256.860382 64.445419,256.612732 
z"/>
<path fill="#FDFDFC" opacity="1.000000" stroke="none" 
	d="
M58.607620,240.460144 
	C58.911983,239.546967 59.467091,238.876038 60.022194,238.205093 
	C60.537384,238.738373 61.052582,239.271637 61.567780,239.804916 
	C60.664639,240.104080 59.761497,240.403229 58.607620,240.460144 
z"/>
<path fill="#FDFDFC" opacity="1.000000" stroke="none" 
	d="
M113.193741,303.264282 
	C113.985023,303.064972 114.727966,303.190369 115.470909,303.315765 
	C115.395935,303.735565 115.320953,304.155365 115.245972,304.575165 
	C114.545784,304.246429 113.845596,303.917694 113.193741,303.264282 
z"/>
<path fill="#FDFDFC" opacity="1.000000" stroke="none" 
	d="
M82.024796,266.526428 
	C82.496559,267.480957 82.638641,268.431763 82.780731,269.382599 
	C82.316071,269.394653 81.851410,269.406708 81.386749,269.418762 
	C81.489548,268.453400 81.592339,267.488068 82.024796,266.526428 
z"/>
<path fill="#FDFDFC" opacity="1.000000" stroke="none" 
	d="
M49.850708,231.139313 
	C49.868603,230.332153 50.119663,229.756775 50.370720,229.181381 
	C50.851639,229.660843 51.332561,230.140305 51.813484,230.619751 
	C51.236950,230.870193 50.660412,231.120636 49.850708,231.139313 
z"/>
<path fill="#FDFDFC" opacity="1.000000" stroke="none" 
	d="
M145.560303,91.546494 
	C146.393127,91.581055 146.992599,91.845955 147.592087,92.110855 
	C147.094971,92.602318 146.597855,93.093781 146.100739,93.585251 
	C145.842804,92.982445 145.584885,92.379631 145.560303,91.546494 
z"/>
<path fill="#F4F8E8" opacity="1.000000" stroke="none" 
	d="
M209.860382,14.019035 
	C210.168594,14.780362 210.188385,15.528307 210.119537,16.641022 
	C209.686935,16.231224 209.342941,15.456658 208.996735,14.340826 
	C209.186981,14.001591 209.379456,14.003622 209.860382,14.019035 
z"/>
<path fill="#F4F8E8" opacity="1.000000" stroke="none" 
	d="
M209.278549,384.866241 
	C209.675720,385.357666 209.946152,386.284241 210.179535,387.590149 
	C209.951080,387.978027 209.759674,387.986572 209.280792,387.997559 
	C209.046143,387.100464 209.098969,386.200928 209.278549,384.866241 
z"/>
<path fill="#FDFDFC" opacity="1.000000" stroke="none" 
	d="
M160.017548,91.005974 
	C160.088501,90.645195 160.277374,90.396706 160.743744,90.088257 
	C160.951035,89.974922 161.071671,90.075821 161.040833,90.367722 
	C160.728714,90.832451 160.447433,91.005295 160.166138,91.178131 
	C160.166138,91.178131 160.065277,91.064888 160.017548,91.005974 
z"/>
<path fill="#1E203E" opacity="1.000000" stroke="none" 
	d="
M226.826630,279.462524 
	C226.330368,274.688660 228.515747,272.946838 232.421280,271.080566 
	C263.023712,256.457092 293.446075,241.455368 323.833496,226.387802 
	C325.287048,225.667038 326.744537,223.237289 326.759064,221.590714 
	C326.952515,199.624771 326.964874,177.655777 326.746063,155.690308 
	C326.728210,153.898819 325.126953,151.334915 323.532684,150.464081 
	C293.760956,134.201859 263.880676,118.138290 234.011185,102.055313 
	C233.024048,101.523796 231.919464,101.202408 230.855255,100.823486 
	C227.592285,99.661667 225.606705,97.785522 226.012054,93.893745 
	C226.320602,90.931213 226.058563,87.909256 225.967377,84.455940 
	C226.813065,79.908096 229.052811,82.749611 231.389496,83.395126 
	C240.301163,88.172279 248.638245,92.619911 256.975311,97.067551 
	C258.721985,98.103729 260.468658,99.139908 262.756195,100.507492 
	C266.822968,102.672775 270.348907,104.506645 273.874817,106.340515 
	C274.336365,106.671021 274.797943,107.001518 275.766113,107.621033 
	C279.051788,109.336632 281.830841,110.763214 284.609863,112.189789 
	C286.822510,113.489624 289.035187,114.789459 291.798157,116.402908 
	C304.233215,123.116615 316.117920,129.516693 328.241699,136.170990 
	C329.521698,136.909439 330.562592,137.393677 331.818054,138.115402 
	C333.916199,139.411057 335.704987,140.719574 337.702820,141.476028 
	C342.061462,143.126373 343.200592,146.040329 343.137177,150.630310 
	C342.863495,170.442352 342.993408,190.260406 343.027374,210.076172 
	C343.063324,231.051727 343.157013,252.027191 343.225464,273.002686 
	C343.157532,273.445435 343.089600,273.888153 342.723206,274.828705 
	C336.169067,279.501984 329.913452,283.677460 323.657837,287.852936 
	C322.833557,288.256409 322.009308,288.659882 320.678040,289.413269 
	C316.009918,292.547699 311.848877,295.332214 307.687805,298.116699 
	C306.584717,298.738800 305.481659,299.360901 303.867432,300.328796 
	C302.167877,301.538361 300.979431,302.402161 299.790985,303.265930 
	C299.620087,303.303162 299.449158,303.340424 298.825867,303.667694 
	C298.053864,304.251831 297.734192,304.546021 297.414490,304.840179 
	C296.975464,305.008728 296.536438,305.177246 295.664429,305.634766 
	C288.783630,310.189270 282.335846,314.454803 275.888062,318.720337 
	C275.352905,318.959473 274.817749,319.198608 273.838684,319.729431 
	C273.131500,320.302185 272.868256,320.583221 272.604980,320.864258 
	C272.604980,320.864258 272.216675,320.885773 271.784668,321.124146 
	C264.836334,325.664154 258.320068,329.965759 251.803772,334.267365 
	C251.628479,334.307556 251.453186,334.347717 250.828583,334.681702 
	C250.066315,335.265533 249.753342,335.555573 249.440369,335.845581 
	C249.001755,336.023590 248.563141,336.201569 247.682922,336.665161 
	C244.901184,338.461243 242.612000,340.058807 240.209915,341.463348 
	C235.771896,344.058411 231.267685,346.540344 226.791061,349.069397 
	C226.833939,326.020538 226.876801,302.971710 226.826630,279.462524 
z"/>
<path fill="#FDFDFC" opacity="1.000000" stroke="none" 
	d="
M343.615540,273.013611 
	C343.157013,252.027191 343.063324,231.051727 343.027374,210.076172 
	C342.993408,190.260406 342.863495,170.442352 343.137177,150.630310 
	C343.200592,146.040329 342.061462,143.126373 337.702820,141.476028 
	C335.704987,140.719574 333.916199,139.411057 331.927917,137.634216 
	C331.882141,135.610336 331.941071,134.305176 332.000000,133.000000 
	C336.284363,133.343475 340.584747,133.563889 344.841919,134.116592 
	C345.911865,134.255493 347.531128,135.311432 347.722839,136.199585 
	C348.694702,140.702347 349.885956,145.286133 349.904907,149.846069 
	C350.069794,189.468994 349.999969,229.092911 349.999939,268.716522 
	C349.999939,270.316071 349.999939,271.915619 349.999939,274.113892 
	C347.466309,273.653473 345.735962,273.339020 343.615540,273.013611 
z"/>
<path fill="#FDFDFC" opacity="1.000000" stroke="none" 
	d="
M328.002625,135.916763 
	C316.117920,129.516693 304.233215,123.116615 292.149292,116.443726 
	C292.262970,113.725998 293.347748,112.624413 295.986420,113.481880 
	C298.608948,114.334099 301.318146,114.919601 304.421051,115.735603 
	C304.719055,120.787994 307.454010,121.863235 312.655609,120.391502 
	C318.356720,118.778427 321.352448,122.481499 318.981506,129.030151 
	C321.546295,129.030151 323.884827,129.513901 325.908966,128.922226 
	C329.359192,127.913673 331.316254,128.660492 331.609161,132.628113 
	C330.153168,133.973358 329.077881,134.945068 328.002625,135.916763 
z"/>
<path fill="#FDFDFC" opacity="1.000000" stroke="none" 
	d="
M226.512390,349.231812 
	C231.267685,346.540344 235.771896,344.058411 240.209915,341.463348 
	C242.612000,340.058807 244.901184,338.461243 247.586777,336.887451 
	C248.637161,337.850403 249.512756,338.801178 250.007660,339.920288 
	C250.783035,341.673706 251.905945,343.612976 251.700836,345.332733 
	C251.578415,346.359314 249.284393,347.299500 247.822037,347.957153 
	C244.925446,349.259888 241.940125,350.369904 238.968521,351.499176 
	C237.481201,352.064362 235.938690,352.914001 234.429443,352.897003 
	C231.776291,352.867157 229.116745,352.333679 226.501297,351.805878 
	C226.259720,351.757141 226.315826,350.233185 226.512390,349.231812 
z"/>
<path fill="#FDFDFC" opacity="1.000000" stroke="none" 
	d="
M256.981995,96.671661 
	C248.638245,92.619911 240.301163,88.172279 231.744659,83.437393 
	C233.844254,82.440025 236.126846,81.361824 238.492996,81.127647 
	C240.678604,80.911331 243.649857,80.802948 245.061707,82.036171 
	C249.686325,86.075668 250.380692,86.294418 254.998352,81.747566 
	C255.277145,81.473022 255.875473,81.523003 256.201874,81.449677 
	C256.449188,81.671761 256.698608,81.837189 256.677704,81.885330 
	C255.536453,84.515900 253.529663,87.119339 253.475449,89.763771 
	C253.431442,91.909538 255.729431,94.103302 256.981995,96.671661 
z"/>
<path fill="#FDFDFC" opacity="1.000000" stroke="none" 
	d="
M251.935669,334.659363 
	C258.320068,329.965759 264.836334,325.664154 271.679077,321.287445 
	C274.047699,328.439117 273.148560,330.260620 264.985809,333.820557 
	C261.890320,335.170593 258.560883,336.079895 255.251373,336.780273 
	C254.352325,336.970551 253.137466,335.668457 251.935669,334.659363 
z"/>
<path fill="#FDFDFC" opacity="1.000000" stroke="none" 
	d="
M276.074036,319.034851 
	C282.335846,314.454803 288.783630,310.189270 295.577637,305.859009 
	C296.209320,308.690704 296.494781,311.587097 296.868591,315.379913 
	C294.409760,314.046204 292.682526,313.109314 291.693176,312.572662 
	C290.898224,314.851990 290.765045,318.019226 289.343353,318.780640 
	C285.303345,320.944397 280.778809,323.644714 276.074036,319.034851 
z"/>
<path fill="#FDFDFC" opacity="1.000000" stroke="none" 
	d="
M324.016998,288.001801 
	C329.913452,283.677460 336.169067,279.501984 342.723694,275.166809 
	C343.724487,275.691650 344.705017,276.255066 345.066895,277.087402 
	C345.715240,278.578766 345.991302,280.231995 346.422943,281.817566 
	C344.659698,281.784576 342.895599,281.773071 341.133789,281.703857 
	C340.682434,281.686127 340.238251,281.486115 339.766937,281.363647 
	C339.463348,287.056274 331.082977,290.687286 324.016998,288.001801 
z"/>
<path fill="#FDFDFC" opacity="1.000000" stroke="none" 
	d="
M284.968170,112.038513 
	C281.830841,110.763214 279.051788,109.336632 276.053223,107.666115 
	C278.184723,107.422173 280.535767,107.422173 283.558411,107.422173 
	C283.854095,105.881447 284.389923,103.089691 285.067535,99.558914 
	C290.232605,106.686699 290.154449,108.921112 284.968170,112.038513 
z"/>
<path fill="#FDFDFC" opacity="1.000000" stroke="none" 
	d="
M307.831299,298.517303 
	C311.848877,295.332214 316.009918,292.547699 320.503418,289.631958 
	C321.377777,295.148834 316.966949,297.689423 313.415131,300.433899 
	C312.524139,301.122345 309.836670,299.485870 307.831299,298.517303 
z"/>
<path fill="#FDFDFC" opacity="1.000000" stroke="none" 
	d="
M273.908752,105.912216 
	C270.348907,104.506645 266.822968,102.672775 263.098541,100.572906 
	C264.078217,99.225731 265.692474,97.008598 266.357574,97.263924 
	C268.960480,98.263153 271.431549,99.843338 273.581940,101.648079 
	C274.282104,102.235718 273.854492,104.167114 273.908752,105.912216 
z"/>
<path fill="#FDFDFC" opacity="1.000000" stroke="none" 
	d="
M299.958679,303.637360 
	C300.979431,302.402161 302.167877,301.538361 303.620850,300.622040 
	C304.875488,301.226837 305.865631,301.884216 306.855774,302.541565 
	C306.766113,303.030640 306.676453,303.519714 306.586792,304.008789 
	C304.433319,304.008789 302.279846,304.008789 299.958679,303.637360 
z"/>
<path fill="#FDFDFC" opacity="1.000000" stroke="none" 
	d="
M318.607910,303.533478 
	C319.058472,303.649689 319.334686,303.933380 319.589630,304.235107 
	C319.596161,304.242859 319.368622,304.448334 319.250244,304.561615 
	C318.977081,304.275513 318.703949,303.989441 318.607910,303.533478 
z"/>
<path fill="#FDFDFC" opacity="1.000000" stroke="none" 
	d="
M272.893311,320.815918 
	C272.868256,320.583221 273.131500,320.302185 273.690186,319.988831 
	C273.717590,320.226868 273.449646,320.497253 272.893311,320.815918 
z"/>
<path fill="#FDFDFC" opacity="1.000000" stroke="none" 
	d="
M249.767426,335.799805 
	C249.753342,335.555573 250.066315,335.265533 250.703476,334.920715 
	C250.716599,335.161926 250.405533,335.457977 249.767426,335.799805 
z"/>
<path fill="#FDFDFC" opacity="1.000000" stroke="none" 
	d="
M297.748352,304.794495 
	C297.734192,304.546021 298.053864,304.251831 298.703674,303.899902 
	C298.716583,304.144379 298.399384,304.446594 297.748352,304.794495 
z"/>
<path fill="#8CA84F" opacity="1.000000" stroke="none" 
	d="
M296.995605,203.000122 
	C297.042145,203.445740 297.088684,203.891357 297.160217,205.048523 
	C296.566589,212.587936 293.864746,215.248398 286.871826,215.761642 
	C284.256683,215.953583 281.627258,215.951263 279.004364,216.037521 
	C276.714691,215.602905 274.424988,215.168289 272.092590,213.910217 
	C272.057648,203.062943 272.065399,193.039124 272.073181,183.015289 
	C275.111267,182.874619 278.149384,182.733948 281.945129,182.621445 
	C283.483643,182.544083 284.264526,182.438553 285.045410,182.333008 
	C286.110535,182.476364 287.175690,182.619705 288.963989,182.912247 
	C297.213013,186.530502 298.107239,191.435318 292.339600,198.515579 
	C293.552948,199.367416 294.756012,200.212036 295.959076,201.056656 
	C295.959076,201.056656 295.993500,200.997345 296.007751,201.305374 
	C296.346527,202.075638 296.671051,202.537888 296.995605,203.000122 
M280.043884,210.189590 
	C283.052002,209.538223 286.164551,209.147430 288.981384,208.018661 
	C289.554230,207.789093 289.531586,203.533310 288.895630,203.268860 
	C286.202271,202.148956 283.176758,201.820251 280.262238,201.256165 
	C280.056244,201.216293 279.766083,201.611038 279.138184,202.092972 
	C279.239868,204.421051 279.353241,207.016495 280.043884,210.189590 
M279.164581,191.575027 
	C279.282196,192.993271 279.399811,194.411514 279.509399,195.733109 
	C286.231812,196.460388 288.584229,195.816086 288.571930,192.826675 
	C288.565277,191.206024 286.944733,188.525223 285.615051,188.218643 
	C283.443634,187.718002 279.705750,185.873260 279.164581,191.575027 
z"/>
<path fill="#89A648" opacity="1.000000" stroke="none" 
	d="
M250.247345,213.973846 
	C249.703995,214.581741 249.160645,215.189636 247.938660,215.761719 
	C245.880325,215.450775 244.500641,215.175644 243.116272,214.899582 
	C242.854523,212.397888 242.622009,210.175674 242.505676,207.508240 
	C242.543518,203.060944 242.465210,199.058853 242.535431,194.660919 
	C242.598648,193.153976 242.513306,192.042877 242.540207,190.568039 
	C242.542877,189.463425 242.433289,188.722580 242.323715,187.981720 
	C242.416504,187.238495 242.509293,186.495285 242.613220,185.060211 
	C242.666794,183.878906 242.709198,183.389481 242.751617,182.900040 
	C242.751617,182.900040 242.905914,182.915848 243.375763,182.842407 
	C249.901688,183.171066 255.957764,183.573166 262.013824,183.975250 
	C262.013824,183.975250 262.003601,184.003418 262.076477,184.307831 
	C262.766968,185.073257 263.384583,185.534256 264.002167,185.995255 
	C264.002167,185.995255 264.000000,186.000000 264.060669,186.386551 
	C267.599823,195.989929 265.974640,200.445892 257.947662,203.700195 
	C256.578766,203.710999 255.209885,203.721802 253.324066,203.541351 
	C252.511414,203.438461 252.215698,203.526794 251.919983,203.615143 
	C251.919983,203.615143 251.915710,203.816193 251.540527,203.901108 
	C250.859360,207.315308 250.553360,210.644577 250.247345,213.973846 
M253.381012,198.292908 
	C258.335419,197.566177 260.092438,195.631256 259.220215,191.862411 
	C258.431061,188.452393 255.485229,187.514145 250.048172,189.154633 
	C251.337402,192.072586 247.346436,196.209320 253.381012,198.292908 
z"/>
<path fill="#91AC55" opacity="1.000000" stroke="none" 
	d="
M227.141769,215.674438 
	C227.072861,205.089462 227.003967,194.504486 227.402527,183.386536 
	C230.199203,183.012833 232.528397,183.172134 234.857605,183.331436 
	C234.840714,184.313263 234.823807,185.295090 234.788834,187.099091 
	C234.840256,194.947739 234.909744,201.974228 234.979248,209.000702 
	C234.543900,211.239182 234.108566,213.477646 232.925415,215.794617 
	C230.498978,215.806885 228.820374,215.740662 227.141769,215.674438 
z"/>
<path fill="#FEFFFD" opacity="1.000000" stroke="none" 
	d="
M235.345703,209.004349 
	C234.909744,201.974228 234.840256,194.947739 234.864929,187.460144 
	C237.179138,187.318924 239.399185,187.638824 241.971466,187.970230 
	C242.433289,188.722580 242.542877,189.463425 242.201019,190.586472 
	C240.615692,191.177032 239.481796,191.385391 237.308228,191.784805 
	C239.671951,193.307648 241.029419,194.182205 242.386887,195.056763 
	C242.465210,199.058853 242.543518,203.060944 242.225937,207.621674 
	C241.554977,209.120605 241.279922,210.060913 241.004883,211.001221 
	C240.507141,211.264725 240.009399,211.528198 239.255829,211.895844 
	C239.000000,212.000000 238.991455,212.010193 238.991455,212.010193 
	C237.898361,211.009460 236.805267,210.008728 235.345703,209.004349 
z"/>
<path fill="#F3F9E6" opacity="1.000000" stroke="none" 
	d="
M257.994904,204.064545 
	C265.974640,200.445892 267.599823,195.989929 264.062988,186.385437 
	C265.579681,186.654144 267.154663,187.310532 268.920776,188.046585 
	C269.777283,186.299759 270.553497,184.716583 271.701477,183.074341 
	C272.065399,193.039124 272.057648,203.062943 271.957153,213.548157 
	C271.394531,212.376511 270.544098,210.747925 270.524872,209.109619 
	C270.463043,203.827942 270.725708,198.542877 270.791290,193.258240 
	C270.795563,192.914536 270.192596,192.563293 269.138916,191.420135 
	C268.321503,193.970383 267.269226,195.934433 267.126678,197.962433 
	C266.791046,202.737564 262.651703,203.634445 259.715363,205.750427 
	C259.557190,205.864410 258.617859,204.894318 257.994904,204.064545 
z"/>
<path fill="#F3F9E6" opacity="1.000000" stroke="none" 
	d="
M262.007019,183.610992 
	C255.957764,183.573166 249.901688,183.171066 243.370331,182.765060 
	C243.053421,181.346802 243.211777,179.932465 243.370132,178.518143 
	C243.671509,178.365997 243.972885,178.213852 244.274246,178.061722 
	C244.940094,179.384369 245.605942,180.707031 245.704483,180.902771 
	C251.349228,180.902771 255.656967,180.795471 259.948883,181.007950 
	C260.667847,181.043533 261.318176,182.465393 262.007019,183.610992 
z"/>
<path fill="#F3F9E6" opacity="1.000000" stroke="none" 
	d="
M279.299988,216.329773 
	C281.627258,215.951263 284.256683,215.953583 286.871826,215.761642 
	C293.864746,215.248398 296.566589,212.587936 297.283447,205.362274 
	C300.598602,209.330994 298.008972,216.570007 292.888824,216.889206 
	C288.480469,217.164047 284.028381,216.738098 279.299988,216.329773 
z"/>
<path fill="#F3F9E6" opacity="1.000000" stroke="none" 
	d="
M295.977478,200.638824 
	C294.756012,200.212036 293.552948,199.367416 292.339600,198.515579 
	C298.107239,191.435318 297.213013,186.530502 289.369141,182.884949 
	C295.091553,181.540878 298.935699,185.398651 297.859650,191.667465 
	C297.366455,194.540619 296.624847,197.371140 295.977478,200.638824 
z"/>
<path fill="#F3F9E6" opacity="1.000000" stroke="none" 
	d="
M241.005188,211.409851 
	C241.279922,210.060913 241.554977,209.120605 242.109772,208.066864 
	C242.622009,210.175674 242.854523,212.397888 243.116272,214.899582 
	C244.500641,215.175644 245.880325,215.450775 247.631241,215.867523 
	C246.563751,216.576004 244.103104,217.908432 243.857956,217.581192 
	C242.594452,215.894531 241.899109,213.782257 241.005188,211.409851 
z"/>
<path fill="#F3F9E6" opacity="1.000000" stroke="none" 
	d="
M250.554901,213.758728 
	C250.553360,210.644577 250.859360,207.315308 251.582520,203.992493 
	C251.620590,207.180496 251.241531,210.362045 250.554901,213.758728 
z"/>
<path fill="#F3F9E6" opacity="1.000000" stroke="none" 
	d="
M234.851410,182.920578 
	C232.528397,183.172134 230.199203,183.012833 227.431763,182.917358 
	C229.427200,179.767120 232.084122,180.270782 234.851410,182.920578 
z"/>
<path fill="#F3F9E6" opacity="1.000000" stroke="none" 
	d="
M227.146149,216.069000 
	C228.820374,215.740662 230.498978,215.806885 232.591934,215.955261 
	C231.268921,219.127853 229.285477,218.836746 227.146149,216.069000 
z"/>
<path fill="#F4F8E8" opacity="1.000000" stroke="none" 
	d="
M217.916458,17.893141 
	C217.392105,16.666561 217.169556,15.297711 216.820343,13.529590 
	C220.102570,13.713385 219.263840,15.698003 217.916458,17.893141 
z"/>
<path fill="#F4F8E8" opacity="1.000000" stroke="none" 
	d="
M217.079712,388.877563 
	C216.911682,387.499939 217.117401,386.125244 217.468811,384.357300 
	C217.560837,385.602844 217.507156,387.241699 217.079712,388.877563 
z"/>
<path fill="#F3F9E6" opacity="1.000000" stroke="none" 
	d="
M238.995209,212.004288 
	C238.833954,212.860458 238.677460,213.712326 238.520981,214.564209 
	C238.160049,214.435928 237.799133,214.307663 237.438217,214.179382 
	C237.736145,213.488983 238.034073,212.798569 238.661728,212.059174 
	C238.991455,212.010193 239.000000,212.000000 238.995209,212.004288 
z"/>
<path fill="#F3F9E6" opacity="1.000000" stroke="none" 
	d="
M284.943787,182.081451 
	C284.264526,182.438553 283.483643,182.544083 282.328247,182.503998 
	C282.916504,182.182236 283.879333,182.006073 284.943787,182.081451 
z"/>
<path fill="#F4F8E8" opacity="1.000000" stroke="none" 
	d="
M213.036163,389.281860 
	C213.448624,388.930359 213.896774,388.878754 214.674255,388.915710 
	C214.766129,389.520386 214.528671,390.036591 214.291214,390.552765 
	C213.884750,390.229095 213.478302,389.905426 213.036163,389.281860 
z"/>
<path fill="#F4F8E8" opacity="1.000000" stroke="none" 
	d="
M214.965454,12.705532 
	C214.555634,13.064416 214.108673,13.123549 213.331055,13.099911 
	C213.231995,12.496172 213.463593,11.975203 213.695190,11.454234 
	C214.106216,11.771417 214.517242,12.088599 214.965454,12.705532 
z"/>
<path fill="#F3F9E6" opacity="1.000000" stroke="none" 
	d="
M242.497910,182.956665 
	C242.709198,183.389481 242.666794,183.878906 242.472672,184.705521 
	C242.295380,184.366226 242.269806,183.689743 242.497910,182.956665 
z"/>
<path fill="#F3F9E6" opacity="1.000000" stroke="none" 
	d="
M263.968933,185.672775 
	C263.384583,185.534256 262.766968,185.073257 262.088776,184.298248 
	C262.664032,184.439590 263.299866,184.894943 263.968933,185.672775 
z"/>
<path fill="#F3F9E6" opacity="1.000000" stroke="none" 
	d="
M297.226166,202.826721 
	C296.671051,202.537888 296.346527,202.075638 295.980347,201.326111 
	C296.444733,201.576981 296.950745,202.115158 297.226166,202.826721 
z"/>
<path fill="#A5B979" opacity="1.000000" stroke="none" 
	d="
M252.197601,203.708633 
	C252.215698,203.526794 252.511414,203.438461 252.918152,203.480713 
	C252.844543,203.674927 252.659897,203.738525 252.197601,203.708633 
z"/>
<path fill="#FFFFFF" opacity="1.000000" stroke="none" 
	d="
M174.889465,112.903107 
	C177.032547,112.903107 179.175629,112.903107 182.333603,112.903107 
	C182.446884,111.662125 182.634598,109.605934 182.848923,107.258369 
	C183.526642,107.596191 184.173309,108.124443 184.880768,108.224976 
	C186.071198,108.394157 187.300232,108.291649 188.513031,108.303421 
	C188.467865,106.887741 188.790100,105.325554 188.296783,104.088600 
	C187.420349,101.890999 186.049576,99.890549 184.885605,97.807625 
	C187.183121,98.465034 189.479416,99.126900 191.781357,99.768433 
	C191.914749,99.805618 192.094147,99.677780 192.540466,99.533577 
	C192.644104,98.896591 193.164368,97.815079 192.837021,97.396614 
	C187.115631,90.082726 192.299744,83.378098 194.014008,76.540001 
	C194.414230,74.943481 195.549850,73.318848 196.785736,72.185402 
	C200.078217,69.165817 201.401901,62.739128 199.246216,58.794949 
	C197.124680,54.913235 197.460892,51.981812 200.009521,50.529282 
	C200.659805,52.331978 201.331055,54.192814 202.002319,56.053650 
	C202.350784,55.864563 202.699234,55.675476 203.047699,55.486393 
	C203.047699,52.898746 202.885757,50.297966 203.094254,47.727230 
	C203.293884,45.265762 204.331345,43.522465 207.645584,45.339066 
	C208.004883,46.500008 208.004272,47.250664 207.642639,48.067581 
	C205.539749,50.050720 204.901260,51.803268 208.019623,53.408268 
	C208.665741,54.556068 209.298325,55.293919 209.930923,56.031769 
	C209.946060,57.395561 209.961197,58.759354 209.439270,60.529709 
	C206.849838,61.109539 204.797470,61.282806 202.328796,61.491219 
	C203.806488,66.459930 207.117493,65.206924 210.001328,65.000000 
	C210.061661,65.446823 210.121994,65.893654 209.853790,66.670036 
	C209.347839,66.999535 209.170410,66.999466 208.641266,67.038017 
	C202.729233,71.698257 203.415421,77.370300 209.861511,80.070442 
	C209.890335,117.586281 209.921844,155.102127 209.946671,192.617966 
	C209.956696,207.749451 209.954224,222.880920 209.953232,238.012405 
	C209.952820,244.113525 209.941116,250.214645 209.369141,256.719299 
	C207.553818,260.527466 206.139908,263.888611 205.214752,267.379272 
	C205.059692,267.964325 207.022888,269.110748 208.008911,270.466614 
	C208.007401,293.957336 208.004318,316.979279 208.001221,340.001221 
	C207.331390,340.918213 206.609955,341.802734 206.006683,342.761627 
	C205.437546,343.666290 204.992752,344.649170 204.493256,345.597656 
	C203.548203,344.880310 202.603149,344.162994 201.332809,342.851471 
	C201.062469,341.506226 201.117432,340.755127 201.538300,339.996216 
	C204.779831,339.564606 205.548660,338.358215 204.104248,335.543396 
	C203.035950,333.461517 202.115982,331.021576 202.091919,328.731049 
	C201.922272,312.586731 202.027802,296.439728 201.964478,280.293884 
	C201.957611,278.541748 201.434372,276.791626 201.059738,274.801819 
	C200.971573,274.392761 200.974319,274.222473 200.981613,273.669128 
	C200.106400,270.720184 199.226639,268.154297 198.322708,265.517975 
	C200.386322,265.064392 202.038391,264.701263 203.690460,264.338165 
	C203.813919,263.907654 203.937363,263.477173 204.060806,263.046692 
	C200.339005,260.890289 196.718796,258.513367 192.829056,256.721497 
	C191.760254,256.229126 189.904877,257.778229 188.376526,257.879517 
	C185.229034,258.088226 182.012268,258.255341 178.924698,257.782349 
	C177.937195,257.631073 177.009613,255.498352 176.526917,254.108215 
	C176.081787,252.826263 176.711319,250.355453 176.106262,250.079926 
	C172.716675,248.536423 169.170135,246.927979 165.533112,246.458954 
	C162.256561,246.036407 157.378510,242.629379 158.309006,239.772400 
	C160.264526,233.768158 156.912933,230.355759 152.461426,228.204773 
	C148.775269,226.423599 144.423508,226.024551 140.372055,224.991882 
	C139.131317,224.675659 136.871628,224.369247 136.837112,223.922501 
	C136.473602,219.217667 132.161240,218.404312 129.562866,215.899139 
	C128.276596,214.659042 127.318779,212.612717 127.111954,210.826965 
	C126.796875,208.106415 125.720871,207.008102 123.046036,206.928894 
	C122.079422,206.900284 120.335823,206.067856 120.339920,205.614822 
	C120.350250,204.474670 121.173920,203.349670 121.635300,202.204010 
	C122.365860,200.389877 123.278824,198.613190 123.717453,196.728226 
	C124.112976,195.028473 123.579506,193.065201 124.144623,191.460785 
	C126.122299,185.846008 128.397842,180.336166 130.803436,174.162323 
	C132.088730,174.466293 134.310852,174.991852 136.448792,175.497482 
	C135.948959,173.259735 135.527908,171.374680 135.185699,169.842575 
	C137.780060,169.431351 139.600479,169.142792 141.420914,168.854248 
	C140.946762,166.470886 140.472610,164.087540 139.883316,161.125381 
	C140.771149,161.365952 141.845810,161.718948 142.947174,161.937317 
	C143.950394,162.136246 145.328003,162.671570 145.946503,162.228790 
	C150.278336,159.127625 154.306381,155.236496 160.887146,158.681152 
	C160.179932,156.106201 159.354507,153.711945 157.693497,152.727448 
	C156.603882,152.081619 154.173447,153.215942 152.592178,154.033813 
	C151.324051,154.689728 150.593933,156.387802 149.325165,157.039871 
	C147.978745,157.731873 146.278564,157.735550 144.732880,158.039825 
	C145.192581,156.495697 145.190704,154.091080 146.190933,153.554520 
	C150.834518,151.063538 153.912613,145.617355 160.164505,146.060196 
	C161.326279,146.142502 162.548279,145.374603 164.131821,144.876663 
	C162.516617,141.911972 161.171143,139.442368 159.825668,136.972763 
	C160.177551,136.529922 160.529434,136.087067 160.881302,135.644226 
	C162.801849,136.452560 164.685471,137.372147 166.657089,138.026657 
	C167.802505,138.406906 169.089203,138.361618 170.312332,138.507797 
	C170.291916,137.291290 170.436172,136.043900 170.215179,134.864990 
	C169.812531,132.716873 168.999451,130.631866 168.748764,128.475067 
	C168.629166,127.446320 169.406677,126.313316 169.777847,125.227539 
	C171.012817,125.874565 172.567825,126.250984 173.401657,127.237167 
	C174.441101,128.466507 174.885986,130.198578 175.587601,131.713562 
	C176.768860,130.170990 177.164001,128.766586 176.701569,127.753723 
	C174.512146,122.958160 172.539169,118.213531 174.923828,112.918762 
	C174.920898,112.938248 174.889465,112.903107 174.889465,112.903107 
M136.513550,214.874695 
	C140.292236,218.721283 140.292236,218.721283 143.573425,217.906891 
	C142.863419,218.600235 142.153412,219.293594 141.443390,219.986938 
	C139.151031,217.174500 136.858673,214.362045 134.566330,211.549606 
	C134.729477,211.286072 134.892639,211.022537 135.055801,210.758987 
	C135.415039,211.925491 135.774277,213.091980 136.513550,214.874695 
M126.788712,195.339233 
	C126.891190,197.110886 126.993668,198.882538 127.096153,200.654175 
	C127.855560,200.649963 128.614975,200.645737 129.374390,200.641510 
	C129.470261,198.629257 129.566147,196.617020 129.662018,194.604767 
	C128.769943,194.617462 127.877861,194.630157 126.788712,195.339233 
M174.703232,245.569138 
	C174.989304,245.296051 175.275375,245.022964 175.561462,244.749893 
	C175.448212,244.631516 175.242767,244.403976 175.235046,244.410492 
	C174.933334,244.665359 174.649628,244.941544 174.703232,245.569138 
z"/>
<path fill="#F4F8E8" opacity="1.000000" stroke="none" 
	d="
M208.001984,340.399170 
	C208.004318,316.979279 208.007401,293.957336 208.010223,270.087769 
	C208.696548,268.162720 209.383163,267.085327 210.069794,266.007965 
	C210.125443,292.028687 210.181076,318.049377 210.149384,344.531799 
	C209.375626,343.594727 208.689194,342.195953 208.001984,340.399170 
z"/>
<path fill="#FDFDFC" opacity="1.000000" stroke="none" 
	d="
M210.002502,79.728859 
	C203.415421,77.370300 202.729233,71.698257 208.601349,67.420853 
	C208.707703,69.950714 206.007202,72.600204 210.070786,73.992226 
	C210.095016,75.790573 210.119263,77.588928 210.002502,79.728859 
z"/>
<path fill="#FDFDFC" opacity="1.000000" stroke="none" 
	d="
M210.133286,265.606476 
	C209.383163,267.085327 208.696548,268.162720 208.008636,269.618958 
	C207.022888,269.110748 205.059692,267.964325 205.214752,267.379272 
	C206.139908,263.888611 207.553818,260.527466 209.260773,257.155029 
	C209.877472,259.859802 210.037125,262.532410 210.133286,265.606476 
z"/>
<path fill="#F4F8E8" opacity="1.000000" stroke="none" 
	d="
M208.003662,48.001316 
	C208.004272,47.250664 208.004883,46.500008 208.003967,45.373993 
	C208.433319,42.716656 208.864197,40.434685 209.682251,38.079857 
	C210.114807,43.766766 210.160187,49.526520 210.068253,55.659023 
	C209.298325,55.293919 208.665741,54.556068 208.020325,52.991875 
	C208.006210,50.777462 208.004929,49.389389 208.003662,48.001316 
z"/>
<path fill="#FDFDFC" opacity="1.000000" stroke="none" 
	d="
M210.090820,64.658997 
	C207.117493,65.206924 203.806488,66.459930 202.328796,61.491219 
	C204.797470,61.282806 206.849838,61.109539 209.384460,60.936646 
	C209.971237,62.064011 210.075775,63.191006 210.090820,64.658997 
z"/>
<path fill="#F4F8E8" opacity="1.000000" stroke="none" 
	d="
M210.157059,73.561859 
	C206.007202,72.600204 208.707703,69.950714 208.953064,67.382233 
	C209.170410,66.999466 209.347839,66.999535 209.791473,67.004730 
	C210.119568,69.050407 210.181458,71.090950 210.157059,73.561859 
z"/>
<path fill="#F4F8E8" opacity="1.000000" stroke="none" 
	d="
M210.065521,352.836945 
	C209.445816,352.740784 208.946854,352.407013 208.447876,352.073273 
	C208.760132,351.749481 209.072403,351.425690 209.727020,351.054932 
	C210.108307,351.538422 210.147278,352.068878 210.065521,352.836945 
z"/>
<path fill="#87A742" opacity="1.000000" stroke="none" 
	d="
M201.172394,340.004059 
	C201.117432,340.755127 201.062469,341.506226 201.089478,342.627075 
	C201.053162,344.978577 200.934891,346.960358 200.788315,349.416290 
	C199.426727,348.754364 198.233871,348.332611 197.211105,347.654388 
	C159.549438,322.681519 123.003540,296.214630 91.928627,263.153961 
	C81.870674,252.453293 72.965370,240.381805 65.154602,227.920807 
	C52.006382,206.944656 56.713230,186.823349 71.206123,168.252731 
	C84.130180,151.692352 100.640305,138.963043 116.951553,126.034286 
	C131.294815,114.665421 145.557098,103.194366 160.010635,91.473282 
	C160.447433,91.005295 160.728714,90.832451 161.098602,90.421082 
	C175.534729,78.217026 187.705139,64.532288 194.571228,46.658894 
	C195.040634,46.796993 195.510025,46.935093 195.979431,47.073196 
	C195.979431,48.770981 196.160721,50.491417 195.951889,52.163113 
	C193.350677,72.985779 186.663620,92.409683 175.871841,110.415031 
	C175.531754,110.982430 175.277664,111.601379 174.936478,112.549698 
	C174.889465,112.903107 174.920898,112.938248 174.624634,113.077095 
	C161.668823,129.249863 148.917633,145.212616 136.389130,161.348282 
	C130.289505,169.204102 124.033394,177.035568 118.891144,185.510910 
	C113.501610,194.393829 114.572502,203.831314 120.451080,212.336945 
	C123.647835,216.962280 127.236977,221.429962 131.243973,225.362671 
	C151.745667,245.484299 176.075272,260.192902 200.977066,274.052155 
	C200.974319,274.222473 200.971573,274.392761 200.978012,275.261078 
	C201.048920,297.307404 201.110657,318.655731 201.172394,340.004059 
z"/>
<path fill="#FFFFFF" opacity="1.000000" stroke="none" 
	d="
M54.464943,196.741699 
	C55.155643,197.332870 55.625374,198.159409 56.095104,198.985947 
	C55.631889,199.160919 55.168671,199.335876 54.705452,199.510834 
	C54.551624,198.666245 54.397797,197.821655 54.464943,196.741699 
z"/>
<path fill="#FFFFFF" opacity="1.000000" stroke="none" 
	d="
M177.034683,67.284660 
	C177.510498,67.302734 178.021011,67.605469 178.531509,67.908203 
	C178.349426,68.118042 178.167343,68.327888 177.985275,68.537727 
	C177.679977,68.214928 177.374680,67.892128 177.034683,67.284660 
z"/>
<path fill="#FFFFFF" opacity="1.000000" stroke="none" 
	d="
M328.241699,136.170990 
	C329.077881,134.945068 330.153168,133.973358 331.614197,133.000824 
	C331.941071,134.305176 331.882141,135.610336 331.713348,137.396698 
	C330.562592,137.393677 329.521698,136.909439 328.241699,136.170990 
z"/>
<path fill="#F4FAE8" opacity="1.000000" stroke="none" 
	d="
M279.755249,209.900757 
	C279.353241,207.016495 279.239868,204.421051 279.138184,202.092972 
	C279.766083,201.611038 280.056244,201.216293 280.262238,201.256165 
	C283.176758,201.820251 286.202271,202.148956 288.895630,203.268860 
	C289.531586,203.533310 289.554230,207.789093 288.981384,208.018661 
	C286.164551,209.147430 283.052002,209.538223 279.755249,209.900757 
z"/>
<path fill="#F3F8E3" opacity="1.000000" stroke="none" 
	d="
M279.169952,191.132751 
	C279.705750,185.873260 283.443634,187.718002 285.615051,188.218643 
	C286.944733,188.525223 288.565277,191.206024 288.571930,192.826675 
	C288.584229,195.816086 286.231812,196.460388 279.509399,195.733109 
	C279.399811,194.411514 279.282196,192.993271 279.169952,191.132751 
z"/>
<path fill="#F5FAE8" opacity="1.000000" stroke="none" 
	d="
M252.929657,198.289154 
	C247.346436,196.209320 251.337402,192.072586 250.048172,189.154633 
	C255.485229,187.514145 258.431061,188.452393 259.220215,191.862411 
	C260.092438,195.631256 258.335419,197.566177 252.929657,198.289154 
z"/>
<path fill="#F3F9E6" opacity="1.000000" stroke="none" 
	d="
M242.535431,194.660919 
	C241.029419,194.182205 239.671951,193.307648 237.308228,191.784805 
	C239.481796,191.385391 240.615692,191.177032 242.088776,190.950226 
	C242.513306,192.042877 242.598648,193.153976 242.535431,194.660919 
z"/>
<path fill="#FDFDFC" opacity="1.000000" stroke="none" 
	d="
M200.981613,273.669128 
	C176.075272,260.192902 151.745667,245.484299 131.243973,225.362671 
	C127.236977,221.429962 123.647835,216.962280 120.451080,212.336945 
	C114.572502,203.831314 113.501610,194.393829 118.891144,185.510910 
	C124.033394,177.035568 130.289505,169.204102 136.389130,161.348282 
	C148.917633,145.212616 161.668823,129.249863 174.627563,113.057617 
	C172.539169,118.213531 174.512146,122.958160 176.701569,127.753723 
	C177.164001,128.766586 176.768860,130.170990 175.587601,131.713562 
	C174.885986,130.198578 174.441101,128.466507 173.401657,127.237167 
	C172.567825,126.250984 171.012817,125.874565 169.777847,125.227539 
	C169.406677,126.313316 168.629166,127.446320 168.748764,128.475067 
	C168.999451,130.631866 169.812531,132.716873 170.215179,134.864990 
	C170.436172,136.043900 170.291916,137.291290 170.312332,138.507797 
	C169.089203,138.361618 167.802505,138.406906 166.657089,138.026657 
	C164.685471,137.372147 162.801849,136.452560 160.881302,135.644226 
	C160.529434,136.087067 160.177551,136.529922 159.825668,136.972763 
	C161.171143,139.442368 162.516617,141.911972 164.131821,144.876663 
	C162.548279,145.374603 161.326279,146.142502 160.164505,146.060196 
	C153.912613,145.617355 150.834518,151.063538 146.190933,153.554520 
	C145.190704,154.091080 145.192581,156.495697 144.732880,158.039825 
	C146.278564,157.735550 147.978745,157.731873 149.325165,157.039871 
	C150.593933,156.387802 151.324051,154.689728 152.592178,154.033813 
	C154.173447,153.215942 156.603882,152.081619 157.693497,152.727448 
	C159.354507,153.711945 160.179932,156.106201 160.887146,158.681152 
	C154.306381,155.236496 150.278336,159.127625 145.946503,162.228790 
	C145.328003,162.671570 143.950394,162.136246 142.947174,161.937317 
	C141.845810,161.718948 140.771149,161.365952 139.883316,161.125381 
	C140.472610,164.087540 140.946762,166.470886 141.420914,168.854248 
	C139.600479,169.142792 137.780060,169.431351 135.185699,169.842575 
	C135.527908,171.374680 135.948959,173.259735 136.448792,175.497482 
	C134.310852,174.991852 132.088730,174.466293 130.803436,174.162323 
	C128.397842,180.336166 126.122299,185.846008 124.144623,191.460785 
	C123.579506,193.065201 124.112976,195.028473 123.717453,196.728226 
	C123.278824,198.613190 122.365860,200.389877 121.635300,202.204010 
	C121.173920,203.349670 120.350250,204.474670 120.339920,205.614822 
	C120.335823,206.067856 122.079422,206.900284 123.046036,206.928894 
	C125.720871,207.008102 126.796875,208.106415 127.111954,210.826965 
	C127.318779,212.612717 128.276596,214.659042 129.562866,215.899139 
	C132.161240,218.404312 136.473602,219.217667 136.837112,223.922501 
	C136.871628,224.369247 139.131317,224.675659 140.372055,224.991882 
	C144.423508,226.024551 148.775269,226.423599 152.461426,228.204773 
	C156.912933,230.355759 160.264526,233.768158 158.309006,239.772400 
	C157.378510,242.629379 162.256561,246.036407 165.533112,246.458954 
	C169.170135,246.927979 172.716675,248.536423 176.106262,250.079926 
	C176.711319,250.355453 176.081787,252.826263 176.526917,254.108215 
	C177.009613,255.498352 177.937195,257.631073 178.924698,257.782349 
	C182.012268,258.255341 185.229034,258.088226 188.376526,257.879517 
	C189.904877,257.778229 191.760254,256.229126 192.829056,256.721497 
	C196.718796,258.513367 200.339005,260.890289 204.060806,263.046692 
	C203.937363,263.477173 203.813919,263.907654 203.690460,264.338165 
	C202.038391,264.701263 200.386322,265.064392 198.322708,265.517975 
	C199.226639,268.154297 200.106400,270.720184 200.981613,273.669128 
z"/>
<path fill="#FDFDFC" opacity="1.000000" stroke="none" 
	d="
M201.538300,339.996216 
	C201.110657,318.655731 201.048920,297.307404 201.068909,275.499817 
	C201.434372,276.791626 201.957611,278.541748 201.964478,280.293884 
	C202.027802,296.439728 201.922272,312.586731 202.091919,328.731049 
	C202.115982,331.021576 203.035950,333.461517 204.104248,335.543396 
	C205.548660,338.358215 204.779831,339.564606 201.538300,339.996216 
z"/>
<path fill="#FDFDFC" opacity="1.000000" stroke="none" 
	d="
M136.323517,214.566589 
	C135.774277,213.091980 135.415039,211.925491 135.055801,210.758987 
	C134.892639,211.022537 134.729477,211.286072 134.566330,211.549606 
	C136.858673,214.362045 139.151031,217.174500 141.443390,219.986938 
	C142.153412,219.293594 142.863419,218.600235 143.573425,217.906891 
	C140.292236,218.721283 140.292236,218.721283 136.323517,214.566589 
z"/>
<path fill="#FDFDFC" opacity="1.000000" stroke="none" 
	d="
M126.887245,194.991043 
	C127.877861,194.630157 128.769943,194.617462 129.662018,194.604767 
	C129.566147,196.617020 129.470261,198.629257 129.374390,200.641510 
	C128.614975,200.645737 127.855560,200.649963 127.096153,200.654175 
	C126.993668,198.882538 126.891190,197.110886 126.887245,194.991043 
z"/>
<path fill="#FDFDFC" opacity="1.000000" stroke="none" 
	d="
M207.642639,48.067581 
	C208.004929,49.389389 208.006210,50.777462 208.006805,52.581928 
	C204.901260,51.803268 205.539749,50.050720 207.642639,48.067581 
z"/>
<path fill="#FDFDFC" opacity="1.000000" stroke="none" 
	d="
M174.533401,245.392029 
	C174.649628,244.941544 174.933334,244.665359 175.235046,244.410492 
	C175.242767,244.403976 175.448212,244.631516 175.561462,244.749893 
	C175.275375,245.022964 174.989304,245.296051 174.533401,245.392029 
z"/>
</svg>